# xmcd
#
# Track frame offsets:
#	150
#	15006
#	29075
#	39003
#	54671
#	67884
#	81403
#	92230
#	104131
#	116844
#	127217
#	140971
#
# Disc length: 2021 seconds
#
# Revision: 1
# Processed by: cddbd v1.5.2PL0 Copyright (c) Steve Scherf et al.
# Submitted via: audiograbber 1.83.01
#
DISCID=ad07e30c
DTITLE=John Anderson - John Anderson
DYEAR=1980
DGENRE=Country
TTITLE0=Havin' Hard Times
TTITLE1=Something Borrowed, Something Blue
TTITLE2=Shoot Low, Sheriff
TTITLE3=The Girl At The End Of The Bar
TTITLE4=Low Dog Blues
TTITLE5=1959
TTITLE6=She Just Started Liking Cheatin' Songs
TTITLE7=The Arms Of A Fool
TTITLE8=It Looks Like The Party Is Over
TTITLE9=If There Were No Memories
TTITLE10=Your Lying Blue Eyes
TTITLE11=You're Right, I'm Wrong, I'm Sorry
EXTD=
EXTT0=
EXTT1=
EXTT2=
EXTT3=
EXTT4=
EXTT5=
EXTT6=
EXTT7=
EXTT8=
EXTT9=
EXTT10=
EXTT11=
PLAYORDER=
